<svg width="58" height="40" viewBox="0 0 58 40" fill="none" xmlns="http://www.w3.org/2000/svg">
<rect x="0.5" y="0.5" width="57" height="39" rx="5.5" fill="white"/>
<rect x="0.5" y="0.5" width="57" height="39" rx="5.5" stroke="#F2F4F7"/>
<path fill-rule="evenodd" clip-rule="evenodd" d="M26.7633 25.8791V20.988H29.2876C30.3221 20.988 31.1952 20.6414 31.9069 19.9578L32.0777 19.7845C33.3779 18.3691 33.2925 16.1643 31.9069 14.8549C31.2141 14.1616 30.2651 13.7861 29.2876 13.8054H25.2354V25.8791H26.7633ZM26.7634 19.5051V15.288H29.3262C29.8767 15.288 30.3987 15.4998 30.7879 15.885C31.6137 16.6937 31.6327 18.0417 30.8354 18.8793C30.4462 19.2933 29.8957 19.5244 29.3262 19.5051H26.7634ZM39.2049 18.2632C38.5501 17.6566 37.658 17.3485 36.5287 17.3485C35.0767 17.3485 33.9853 17.8877 33.2641 18.9564L34.6117 19.8133C35.1051 19.0816 35.7789 18.7157 36.6331 18.7157C37.174 18.7157 37.696 18.9179 38.104 19.2838C38.5026 19.6304 38.7304 20.131 38.7304 20.6606V21.0168C38.142 20.6895 37.4018 20.5162 36.4907 20.5162C35.4278 20.5162 34.5737 20.7665 33.9379 21.2768C33.302 21.7871 32.9794 22.461 32.9794 23.3179C32.9604 24.0978 33.2925 24.8392 33.8809 25.3398C34.4788 25.879 35.238 26.1486 36.1301 26.1486C37.1835 26.1486 38.0186 25.6768 38.6545 24.7333H38.7209V25.879H40.1824V20.7857C40.1824 19.717 39.8597 18.8697 39.2049 18.2632ZM35.0579 24.3578C34.7447 24.1267 34.5549 23.7512 34.5549 23.3468C34.5549 22.8943 34.7637 22.5188 35.1718 22.2204C35.5895 21.9219 36.1115 21.7678 36.7285 21.7678C37.5827 21.7582 38.2471 21.9508 38.7217 22.3359C38.7217 22.9906 38.4654 23.5587 37.9624 24.0401C37.5068 24.5022 36.8898 24.7622 36.2444 24.7622C35.8173 24.7718 35.3996 24.6274 35.0579 24.3578ZM43.466 29.5088L48.5717 17.6181H46.9109L44.5479 23.549H44.5194L42.0994 17.6181H40.4386L43.7887 25.3495L41.8906 29.5088H43.466Z" fill="#3C4043"/>
<path d="M21.4884 19.9291C21.4884 19.4574 21.4504 18.9856 21.3745 18.5234H14.9307V21.1904H18.6223C18.4705 22.0473 17.977 22.8176 17.2557 23.299V25.032H19.4575C20.7481 23.8285 21.4884 22.0473 21.4884 19.9291Z" fill="#4285F4"/>
<path d="M14.9313 26.709C16.7724 26.709 18.3287 26.0928 19.4581 25.0337L17.2563 23.3007C16.6395 23.7243 15.8518 23.965 14.9313 23.965C13.1471 23.965 11.6382 22.7422 11.0972 21.1055H8.8291V22.8963C9.9869 25.2359 12.3499 26.709 14.9313 26.709Z" fill="#34A853"/>
<path d="M11.0974 21.1065C10.8127 20.2496 10.8127 19.3157 11.0974 18.4492V16.668H8.82893C7.85129 18.6225 7.85129 20.9332 8.82893 22.8877L11.0974 21.1065Z" fill="#FBBC04"/>
<path d="M14.9313 15.5882C15.9087 15.5689 16.8483 15.9444 17.5505 16.628L19.5055 14.6446C18.2623 13.47 16.63 12.8249 14.9313 12.8442C12.3499 12.8442 9.9869 14.3269 8.8291 16.6665L11.0972 18.4574C11.6382 16.811 13.1471 15.5882 14.9313 15.5882Z" fill="#EA4335"/>
</svg>
