<svg width="44" height="44" viewBox="0 0 44 44" fill="none" xmlns="http://www.w3.org/2000/svg">
<rect x="2.75" y="2.75" width="38.5" height="38.5" rx="6" fill="url(#paint0_radial_229_46650)"/>
<rect x="2.75" y="2.75" width="38.5" height="38.5" rx="6" fill="url(#paint1_radial_229_46650)"/>
<rect x="2.75" y="2.75" width="38.5" height="38.5" rx="6" fill="url(#paint2_radial_229_46650)"/>
<path d="M31.625 14.4375C31.625 15.5766 30.7016 16.5 29.5625 16.5C28.4234 16.5 27.5 15.5766 27.5 14.4375C27.5 13.2984 28.4234 12.375 29.5625 12.375C30.7016 12.375 31.625 13.2984 31.625 14.4375Z" fill="white"/>
<path fill-rule="evenodd" clip-rule="evenodd" d="M22 28.875C25.797 28.875 28.875 25.797 28.875 22C28.875 18.203 25.797 15.125 22 15.125C18.203 15.125 15.125 18.203 15.125 22C15.125 25.797 18.203 28.875 22 28.875ZM22 26.125C24.2782 26.125 26.125 24.2782 26.125 22C26.125 19.7218 24.2782 17.875 22 17.875C19.7218 17.875 17.875 19.7218 17.875 22C17.875 24.2782 19.7218 26.125 22 26.125Z" fill="white"/>
<path fill-rule="evenodd" clip-rule="evenodd" d="M8.25 21.45C8.25 16.8296 8.25 14.5194 9.1492 12.7546C9.94015 11.2022 11.2022 9.94015 12.7546 9.1492C14.5194 8.25 16.8296 8.25 21.45 8.25H22.55C27.1704 8.25 29.4806 8.25 31.2454 9.1492C32.7978 9.94015 34.0598 11.2022 34.8508 12.7546C35.75 14.5194 35.75 16.8296 35.75 21.45V22.55C35.75 27.1704 35.75 29.4806 34.8508 31.2454C34.0598 32.7978 32.7978 34.0598 31.2454 34.8508C29.4806 35.75 27.1704 35.75 22.55 35.75H21.45C16.8296 35.75 14.5194 35.75 12.7546 34.8508C11.2022 34.0598 9.94015 32.7978 9.1492 31.2454C8.25 29.4806 8.25 27.1704 8.25 22.55V21.45ZM21.45 11H22.55C24.9056 11 26.5069 11.0021 27.7446 11.1033C28.9503 11.2018 29.5668 11.3803 29.9969 11.5995C31.0318 12.1268 31.8732 12.9682 32.4005 14.0031C32.6197 14.4332 32.7982 15.0497 32.8967 16.2554C32.9979 17.4931 33 19.0944 33 21.45V22.55C33 24.9056 32.9979 26.5069 32.8967 27.7446C32.7982 28.9503 32.6197 29.5668 32.4005 29.9969C31.8732 31.0318 31.0318 31.8732 29.9969 32.4005C29.5668 32.6197 28.9503 32.7982 27.7446 32.8967C26.5069 32.9979 24.9056 33 22.55 33H21.45C19.0944 33 17.4931 32.9979 16.2554 32.8967C15.0497 32.7982 14.4332 32.6197 14.0031 32.4005C12.9682 31.8732 12.1268 31.0318 11.5995 29.9969C11.3803 29.5668 11.2018 28.9503 11.1033 27.7446C11.0021 26.5069 11 24.9056 11 22.55V21.45C11 19.0944 11.0021 17.4931 11.1033 16.2554C11.2018 15.0497 11.3803 14.4332 11.5995 14.0031C12.1268 12.9682 12.9682 12.1268 14.0031 11.5995C14.4332 11.3803 15.0497 11.2018 16.2554 11.1033C17.4931 11.0021 19.0944 11 21.45 11Z" fill="white"/>
<defs>
<radialGradient id="paint0_radial_229_46650" cx="0" cy="0" r="1" gradientUnits="userSpaceOnUse" gradientTransform="translate(16.5 31.625) rotate(-55.3758) scale(35.0895)">
<stop stop-color="#B13589"/>
<stop offset="0.79309" stop-color="#C62F94"/>
<stop offset="1" stop-color="#8A3AC8"/>
</radialGradient>
<radialGradient id="paint1_radial_229_46650" cx="0" cy="0" r="1" gradientUnits="userSpaceOnUse" gradientTransform="translate(15.125 42.625) rotate(-65.1363) scale(31.0671)">
<stop stop-color="#E0E8B7"/>
<stop offset="0.444662" stop-color="#FB8A2E"/>
<stop offset="0.71474" stop-color="#E2425C"/>
<stop offset="1" stop-color="#E2425C" stop-opacity="0"/>
</radialGradient>
<radialGradient id="paint2_radial_229_46650" cx="0" cy="0" r="1" gradientUnits="userSpaceOnUse" gradientTransform="translate(0.687502 4.125) rotate(-8.1301) scale(53.4749 11.4377)">
<stop offset="0.156701" stop-color="#406ADC"/>
<stop offset="0.467799" stop-color="#6A45BE"/>
<stop offset="1" stop-color="#6A45BE" stop-opacity="0"/>
</radialGradient>
</defs>
</svg>
