<svg width="44" height="44" viewBox="0 0 44 44" fill="none" xmlns="http://www.w3.org/2000/svg">
<path d="M22.0008 2.75341C22.0008 2.75341 33.3475 2.24604 39.3633 13.6105H21.0353C21.0353 13.6105 17.5765 13.4994 14.6218 17.6806C13.7731 19.4355 12.8608 21.2433 13.8846 24.806C12.4097 22.3162 6.05469 11.2901 6.05469 11.2901C6.05469 11.2901 10.5372 3.20269 22.0007 2.75341H22.0008Z" fill="#EF3F36"/>
<path d="M38.7748 31.6042C38.7748 31.6042 33.5389 41.6525 20.6592 41.1556C22.2506 38.4122 29.8257 25.3405 29.8257 25.3405C29.8257 25.3405 31.6559 22.4121 29.4968 17.7712C28.3986 16.159 27.2793 14.4729 23.6722 13.5742C26.574 13.5479 39.3319 13.5742 39.3319 13.5742C39.3319 13.5742 44.1113 21.4872 38.7748 31.6042Z" fill="#FCD900"/>
<path d="M5.30667 31.682C5.30667 31.682 -0.809742 22.1411 6.06518 11.2734C7.65134 14.0168 15.2265 27.0887 15.2265 27.0887C15.2265 27.0887 16.8604 30.1334 21.9688 30.5877C23.9158 30.4451 25.9421 30.3236 28.531 27.6648C27.1038 30.1809 20.7008 41.1754 20.7008 41.1754C20.7008 41.1754 11.4282 41.3446 5.30652 31.682H5.30667Z" fill="#61BC5B"/>
<path d="M20.6533 41.2518L23.2314 30.5322C23.2314 30.5322 26.0642 30.3101 28.4408 27.7148C26.966 30.2997 20.6533 41.2518 20.6533 41.2518Z" fill="#5AB055"/>
<path d="M13.3652 22.1201C13.3652 17.3948 17.2113 13.5625 21.9536 13.5625C26.696 13.5625 30.542 17.3948 30.542 22.1201C30.542 26.8457 26.696 30.6778 21.9536 30.6778C17.2113 30.6725 13.3652 26.8457 13.3652 22.1201Z" fill="white"/>
<path d="M14.8027 22.1214C14.8027 18.1888 18.0016 14.9961 21.9537 14.9961C25.9004 14.9961 29.1045 18.1835 29.1045 22.1214C29.1045 26.0541 25.9058 29.2468 21.9537 29.2468C18.0069 29.2468 14.8027 26.0541 14.8027 22.1214Z" fill="url(#paint0_linear_229_46662)"/>
<path d="M39.3265 13.5774L28.7117 16.6802C28.7117 16.6802 27.1097 14.3384 23.667 13.5774C26.6536 13.5615 39.3265 13.5774 39.3265 13.5774Z" fill="#EACA05"/>
<path d="M13.6777 24.4139C12.1869 21.8396 6.05469 11.2891 6.05469 11.2891L13.9163 19.0381C13.9163 19.0381 13.1099 20.6926 13.4124 23.0606L13.6776 24.4139H13.6777Z" fill="#DF3A32"/>
<defs>
<linearGradient id="paint0_linear_229_46662" x1="21.9533" y1="15.0967" x2="21.9533" y2="28.8179" gradientUnits="userSpaceOnUse">
<stop stop-color="#86BBE5"/>
<stop offset="1" stop-color="#1072BA"/>
</linearGradient>
</defs>
</svg>
